<?xml version="1.0" encoding="UTF-8" standalone="no"?>
<!-- Created with Inkscape (http://www.inkscape.org/) -->

<svg
   version="1.1"
   id="svg2397"
   xml:space="preserve"
   width="682.66669"
   height="682.66669"
   viewBox="0 0 682.66669 682.66669"
   xmlns="http://www.w3.org/2000/svg"
   xmlns:svg="http://www.w3.org/2000/svg"><defs
     id="defs2401"><clipPath
       clipPathUnits="userSpaceOnUse"
       id="clipPath2459"><path
         d="M 0,512 H 512 V 0 H 0 Z"
         id="path2457" /></clipPath></defs><g
     id="g2403"
     transform="matrix(1.3333333,0,0,-1.3333333,0,682.66667)"><g
       id="g2405"
       transform="translate(83.9126,137.7593)"><path
         d="M 0,0 V -73.95"
         style="fill:none;stroke:#000000;stroke-width:15;stroke-linecap:round;stroke-linejoin:round;stroke-miterlimit:10;stroke-dasharray:none;stroke-opacity:1"
         id="path2407" /></g><g
       id="g2409"
       transform="translate(51.8916,119.272)"><path
         d="M 0,0 64.042,-36.975"
         style="fill:none;stroke:#000000;stroke-width:15;stroke-linecap:round;stroke-linejoin:round;stroke-miterlimit:10;stroke-dasharray:none;stroke-opacity:1"
         id="path2411" /></g><g
       id="g2413"
       transform="translate(115.9341,119.272)"><path
         d="M 0,0 -64.042,-36.975"
         style="fill:none;stroke:#000000;stroke-width:15;stroke-linecap:round;stroke-linejoin:round;stroke-miterlimit:10;stroke-dasharray:none;stroke-opacity:1"
         id="path2415" /></g><g
       id="g2417"
       transform="translate(313.3623,137.7593)"><path
         d="M 0,0 V -73.95"
         style="fill:none;stroke:#000000;stroke-width:15;stroke-linecap:round;stroke-linejoin:round;stroke-miterlimit:10;stroke-dasharray:none;stroke-opacity:1"
         id="path2419" /></g><g
       id="g2421"
       transform="translate(281.3413,119.272)"><path
         d="M 0,0 64.042,-36.975"
         style="fill:none;stroke:#000000;stroke-width:15;stroke-linecap:round;stroke-linejoin:round;stroke-miterlimit:10;stroke-dasharray:none;stroke-opacity:1"
         id="path2423" /></g><g
       id="g2425"
       transform="translate(345.3838,119.272)"><path
         d="M 0,0 -64.042,-36.975"
         style="fill:none;stroke:#000000;stroke-width:15;stroke-linecap:round;stroke-linejoin:round;stroke-miterlimit:10;stroke-dasharray:none;stroke-opacity:1"
         id="path2427" /></g><g
       id="g2429"
       transform="translate(198.6377,137.7593)"><path
         d="M 0,0 V -73.95"
         style="fill:none;stroke:#000000;stroke-width:15;stroke-linecap:round;stroke-linejoin:round;stroke-miterlimit:10;stroke-dasharray:none;stroke-opacity:1"
         id="path2431" /></g><g
       id="g2433"
       transform="translate(166.6162,119.272)"><path
         d="M 0,0 64.042,-36.975"
         style="fill:none;stroke:#000000;stroke-width:15;stroke-linecap:round;stroke-linejoin:round;stroke-miterlimit:10;stroke-dasharray:none;stroke-opacity:1"
         id="path2435" /></g><g
       id="g2437"
       transform="translate(230.6587,119.272)"><path
         d="M 0,0 -64.042,-36.975"
         style="fill:none;stroke:#000000;stroke-width:15;stroke-linecap:round;stroke-linejoin:round;stroke-miterlimit:10;stroke-dasharray:none;stroke-opacity:1"
         id="path2439" /></g><g
       id="g2441"
       transform="translate(428.0874,137.7593)"><path
         d="M 0,0 V -73.95"
         style="fill:none;stroke:#000000;stroke-width:15;stroke-linecap:round;stroke-linejoin:round;stroke-miterlimit:10;stroke-dasharray:none;stroke-opacity:1"
         id="path2443" /></g><g
       id="g2445"
       transform="translate(396.0659,119.272)"><path
         d="M 0,0 64.042,-36.975"
         style="fill:none;stroke:#000000;stroke-width:15;stroke-linecap:round;stroke-linejoin:round;stroke-miterlimit:10;stroke-dasharray:none;stroke-opacity:1"
         id="path2447" /></g><g
       id="g2449"
       transform="translate(460.1084,119.272)"><path
         d="M 0,0 -64.042,-36.975"
         style="fill:none;stroke:#000000;stroke-width:15;stroke-linecap:round;stroke-linejoin:round;stroke-miterlimit:10;stroke-dasharray:none;stroke-opacity:1"
         id="path2451" /></g><g
       id="g2453"><g
         id="g2455"
         clip-path="url(#clipPath2459)"><g
           id="g2461"
           transform="translate(118.9102,27.54)"><path
             d="m 0,0 h 361.07 c 13.37,0 24.21,10.84 24.21,24.21 v 106.5 c 0,13.37 -10.84,24.21 -24.21,24.21 H -86.89 c -13.37,0 -24.21,-10.84 -24.21,-24.21 V 24.21 C -111.1,10.84 -100.26,0 -86.89,0 H -35"
             style="fill:none;stroke:#000000;stroke-width:15;stroke-linecap:round;stroke-linejoin:round;stroke-miterlimit:10;stroke-dasharray:none;stroke-opacity:1"
             id="path2463" /></g><g
           id="g2465"
           transform="translate(382.9502,182.46)"><path
             d="M 0,0 V 79.28"
             style="fill:none;stroke:#000000;stroke-width:15;stroke-linecap:round;stroke-linejoin:round;stroke-miterlimit:10;stroke-dasharray:none;stroke-opacity:1"
             id="path2467" /></g><g
           id="g2469"
           transform="translate(129.0498,182.46)"><path
             d="m 0,0 v 132.13 c 0,8.77 7.11,15.89 15.89,15.89 h 222.12 c 8.78,0 15.89,-7.12 15.89,-15.89 v -17.85"
             style="fill:none;stroke:#000000;stroke-width:15;stroke-linecap:round;stroke-linejoin:round;stroke-miterlimit:10;stroke-dasharray:none;stroke-opacity:1"
             id="path2471" /></g><g
           id="g2473"
           transform="translate(202.7598,330.48)"><path
             d="m 0,0 v 51.6 c 0,29.36 23.89,53.24 53.24,53.24 14.21,0 27.59,-5.54 37.64,-15.58 10.06,-10.07 15.6,-23.45 15.6,-37.66 V 0"
             style="fill:none;stroke:#000000;stroke-width:15;stroke-linecap:round;stroke-linejoin:round;stroke-miterlimit:10;stroke-dasharray:none;stroke-opacity:1"
             id="path2475" /></g><g
           id="g2477"
           transform="translate(153.6201,330.48)"><path
             d="m 0,0 v 51.6 c 0,56.45 45.93,102.38 102.38,102.38 27.33,0 53.04,-10.64 72.39,-29.97 19.35,-19.37 29.99,-45.08 29.99,-72.41 V 0"
             style="fill:none;stroke:#000000;stroke-width:15;stroke-linecap:round;stroke-linejoin:round;stroke-miterlimit:10;stroke-dasharray:none;stroke-opacity:1"
             id="path2479" /></g><g
           id="g2481"
           transform="translate(228.6499,182.46)"><path
             d="M 0,0 4.8,42.65 C 4.95,44.04 4.61,45.43 3.85,46.6 0.77,51.39 -0.9,57.19 -0.53,63.4 0.3,77.34 11.63,88.71 25.56,89.57 41.8,90.58 55.28,77.72 55.28,61.7 55.28,56.13 53.65,50.95 50.85,46.61 50.09,45.43 49.75,44.04 49.9,42.65 L 54.7,0"
             style="fill:none;stroke:#000000;stroke-width:15;stroke-linecap:round;stroke-linejoin:round;stroke-miterlimit:10;stroke-dasharray:none;stroke-opacity:1"
             id="path2483" /></g></g></g></g></svg>
