<svg xmlns="http://www.w3.org/2000/svg" width="793.333" height="1148" version="1.0" viewBox="0 0 595 861"><path d="M156 9.2v9.6l13.8.7c32.4 1.5 61.4 5.6 89.6 12.7 119 29.7 218.9 109.5 273.4 218.4 20.6 41.1 33.5 84.2 39.9 132.9 2.6 20 2.6 74 0 94-13.6 104.3-62.2 194.8-140.8 262.1-73.5 63-161.2 97.1-262.1 101.9l-13.8.7v19.1l15.8-.6c101.9-4 195.4-40.5 272.7-106.2 14.6-12.5 41-39.3 52.6-53.5C561 622.9 595 529 595 430.5S561 238.1 497.1 160c-11.4-14-37.8-40.8-52.4-53.3C367.8 41 273.7 4.3 171.8.3L156-.3v9.5z"/><path d="M130.5 46.6C87.1 50.1 50.3 58.1 13.3 72.2L0 77.2v10.4C0 93.3.2 98 .4 98s6.5-2.5 14-5.5C60 74.2 104.9 65.7 155.5 65.7c61.9 0 116.4 12.9 170.5 40.4C416.9 152.3 484.3 232 512.9 327a358.9 358.9 0 017 180c-29.5 135.6-137.1 244.5-274.8 277.9-14.6 3.6-38.1 7.6-54.1 9.3-15 1.5-56.3 1.5-71.5-.1-36.4-3.8-72.7-12.6-104.9-25.5C7 765.5.6 763 .4 763c-.2 0-.4 4.7-.4 10.4v10.4l13.3 5c31.7 12.1 62.5 19.5 98.7 23.9 20.3 2.4 66.7 2.4 87 0 108-13.1 200.4-63.9 266.5-146.7 43.9-54.9 71.4-121.2 80.2-193 2.4-20.3 2.4-64.7 0-85-12.6-102.3-62.9-192.2-143.7-256.5-57.2-45.5-126.6-74.1-202-83-12.9-1.6-58.3-2.8-69.5-1.9z"/><path d="M128.4 93c-42.3 3.6-82.8 14.1-119.6 31.2L0 128.3v21.6l13.3-6.4c45.2-21.5 90.9-31.8 142.2-31.8 24.8 0 41.5 1.6 63.6 5.9 122 23.7 221.6 116 251.8 233.5 2.2 8.5 4.7 19.3 5.6 24.1 4.5 25 5.8 61.9 3 88.1-11.4 107.9-77.9 202.3-177.4 252.1-73.8 37-162.3 44.2-243.1 19.9-14.3-4.3-36.4-13-49.2-19.4L0 711V732.7l8.8 4.1c31.3 14.5 65.6 24.4 101.7 29.3 23.1 3.2 66.9 3.2 90 0 109.2-14.9 202.6-77 256.5-170.6 58.5-101.5 58.5-228.5 0-330C403.1 171.9 308.5 109 200.5 95c-18.1-2.4-55.4-3.4-72.1-2z"/><path d="M130 139c-40.9 4-77.5 14.4-112 32.1-6.3 3.2-13 6.8-14.7 7.9L0 181v22.9l8.8-5.5c12.2-7.7 34.4-18.4 49.4-23.8 73.6-26.5 152.9-22.2 222.4 12 61.9 30.4 111.3 84.2 135.8 147.7 23.6 61 23.6 131.4 0 192.4-47 121.7-176 194.5-306.7 173.2-36.2-5.9-74.6-20.2-103-38.5L0 657v23l3.3 2.1c6.4 4 35.4 17.8 44.7 21.2 37.4 13.8 67.2 19.1 107.5 19.1s69.9-5.3 107.5-19c24.7-9.1 59.6-29.1 82-47 12-9.6 36.2-34 45.9-46.2 33.6-42.6 54.7-92.8 61.3-146.2 1.7-13.6 1.7-53.4 0-67-6.6-53.4-27.7-103.6-61.3-146.2-9.7-12.2-33.9-36.6-45.9-46.2-22.4-17.9-57.3-37.9-82-47-22.8-8.3-45.6-14-69-17.1-13.9-1.9-50.9-2.7-64-1.5z"/><path d="M136.5 184.6c-45.9 3.7-91.9 20.3-128 46.2l-8 5.7-.3 12.8-.3 12.7 8.3-6.7c26.5-21.3 60.4-37.9 93.8-45.8 17.9-4.1 32.8-5.8 53.5-5.8 37.6 0 69 7.2 102.4 23.4 24.7 11.9 44.1 25.7 63.6 45.4 33.7 33.8 53.9 72.9 63.2 122.5 1.4 7.6 1.7 14.8 1.7 35.5s-.3 27.9-1.7 35.5c-9.3 49.6-29.5 88.7-63.2 122.5-36.7 36.9-82.8 59.8-135 67.1-16.1 2.3-45.9 2.3-62 0-42.8-6-83.6-23.5-116.3-49.9L-.1 599l.3 12.7.3 12.8 8 5.7c32.2 23.1 69.8 37.9 112.5 44.5 16.1 2.4 52.9 2.4 69 0 56.2-8.6 102.9-31.3 141.4-68.7 31.6-30.6 51.4-62.4 64.5-103.4 24.8-77.5 7.4-164.4-45.5-227.6-3.9-4.7-12.5-13.7-19-20-38.2-37.1-85.5-60.2-140.4-68.5-10.2-1.5-44.4-2.7-54.5-1.9z"/><path d="M135.3 231.1c-47 4.5-91.2 25.2-125 58.5L0 299.7v32.6l6.2-8.4c17.3-23.3 42.3-43.7 69-56.3 98.5-46.6 216.4.5 254.1 101.4 14.4 38.7 14.4 84.3 0 123-31.5 84.4-121.7 134-210.8 115.9-44.6-9.1-85.7-35-112.3-70.8L0 528.7v32.6l10.3 10.1c49.4 48.6 118.7 69 187.5 55.1 42.6-8.7 83.2-32 111.9-64.5 60.3-68 67-166.5 16.5-241.5-41.9-62.3-115.4-96.7-190.9-89.4z"/><path d="M138.4 277C72.1 284.6 18.6 330.6 2.5 393.9c-2.3 9-2.5 11.2-2.5 36.6 0 25.4.2 27.6 2.5 36.6 24.4 95.8 131.8 145.2 222 102 39.6-18.9 69.6-53.5 81.9-94.3 5.1-16.9 6.1-24.1 6.1-44.3 0-20.2-1-27.4-6.1-44.3-16.4-54.5-63.3-96-121.1-107.2-12.1-2.3-35.5-3.4-46.9-2zm28.1 19c35.1 2.9 64.7 16.9 89.1 42.2 17.2 17.7 28 37.3 34.2 61.8 2.5 9.6 2.7 12.1 2.7 30.5s-.2 20.9-2.7 30.5c-6.2 24.5-17 44.1-34.2 61.8-29.7 30.7-69.1 45.6-111.6 42.1-34.4-2.8-64.3-17-88.6-42.1-17.2-17.7-28-37.3-34.2-61.8-2.5-9.6-2.7-12.1-2.7-30.5s.2-20.9 2.7-30.5c6.2-24.5 17-44.1 34.2-61.8 23.8-24.7 54.4-39.4 87.4-42.1 5.3-.5 10.2-.9 10.7-.9.6-.1 6.4.3 13 .8z"/><path d="M141 323.1c-15.4 1.8-33.4 8.5-48 18-8.7 5.7-24.5 21.6-30.5 30.8S51 393.7 47.9 405.5c-2 7.6-2.4 11.4-2.4 25s.4 17.4 2.4 25c5.3 20.4 14 35.5 29 50.6 14.1 14 29.1 23 47.3 28.3 7.1 2.1 23.3 4.6 29.3 4.6 1.2 0 1.5-1.6 1.5-9.4 0-10.6 0-10.6-7.8-10.6-7.1 0-20.5-3.6-29.7-7.9-24.6-11.5-40.6-29.4-49.1-55.1-2.6-8-2.8-9.5-2.8-25.5s.2-17.5 2.8-25.5c8.5-25.7 24.5-43.6 49.1-55.1 9.2-4.3 22.6-7.9 29.7-7.9 7.8 0 7.8 0 7.8-10.6V322l-3.2.1c-1.8.1-6.7.5-10.8 1z"/><path d="M145.4 368.9c-24.8 4-45.2 22.5-51.4 46.7-8.3 32.4 11.1 65 44.6 75 8.1 2.4 25.7 2.4 33.8 0 21.6-6.4 36.9-21.2 44.2-42.6 1.4-4.2 1.9-8.4 1.9-17.5 0-12.6-1.1-17.7-6-27.5-7.6-15-22.5-27.4-39.3-32.4-6.5-1.9-20.9-2.8-27.8-1.7zm22.1 20.3c11.4 2.9 22.4 12.2 27.8 23.5 3 6.4 3.2 7.5 3.2 17.9 0 10.7-.1 11.2-3.8 18.6-16 32.6-63.4 32-79-.9-3-6.4-3.2-7.5-3.2-17.8s.2-11.4 3.2-17.8c9.2-19.3 30.3-28.9 51.8-23.5z"/><path d="M149.5 415.5c-9.8 3.5-13.6 15.9-7.5 24.5 3 4.2 7.6 6.4 13.5 6.4 10 0 16-5.9 16-15.9 0-4.7-.5-6.7-2.3-9.3-4.3-5.9-12.5-8.4-19.7-5.7z"/></svg>