<svg version="1.1" id="Capa_1" xmlns="http://www.w3.org/2000/svg" xmlns:xlink="http://www.w3.org/1999/xlink" x="0px" y="0px" viewBox="0 0 512 512" style="enable-background:new 0 0 512 512;" xml:space="preserve">
<g>
	<path style="fill:none;stroke:#000000;stroke-width:20;stroke-linecap:round;stroke-linejoin:round;stroke-miterlimit:10;" d="&#10;&#9;&#9;M365.942,214.987h18.501c16.407,0,29.708-13.3,29.708-29.708l0,0c0-16.407-13.301-29.708-29.708-29.708h-17.501"/>
	<path style="fill:none;stroke:#000000;stroke-width:20;stroke-linecap:round;stroke-linejoin:round;stroke-miterlimit:10;" d="&#10;&#9;&#9;M146.442,214.987h-18.885c-16.407,0-29.708-13.3-29.708-29.708l0,0c0-16.407,13.301-29.708,29.708-29.708h16.501"/>
	<path style="fill:none;stroke:#000000;stroke-width:20;stroke-linecap:round;stroke-linejoin:round;stroke-miterlimit:10;" d="&#10;&#9;&#9;M301,502h141.853v-34.57c0-45.133-36.588-81.721-81.72-81.721h-9.001"/>
	<path style="fill:none;stroke:#000000;stroke-width:20;stroke-linecap:round;stroke-linejoin:round;stroke-miterlimit:10;" d="&#10;&#9;&#9;M159.868,385.71h-9.001c-45.133,0-81.721,36.588-81.721,81.721V502H211"/>
	
		<line style="fill:none;stroke:#000000;stroke-width:20;stroke-linecap:round;stroke-linejoin:round;stroke-miterlimit:10;" x1="196.85" y1="350.369" x2="196.85" y2="287.468"/>
	
		<line style="fill:none;stroke:#000000;stroke-width:20;stroke-linecap:round;stroke-linejoin:round;stroke-miterlimit:10;" x1="315.15" y1="287.468" x2="315.15" y2="350.369"/>
	<path style="fill:none;stroke:#000000;stroke-width:20;stroke-linecap:round;stroke-linejoin:round;stroke-miterlimit:10;" d="&#10;&#9;&#9;M192.729,103.425l-46.67,52.147v36.63c0,60.719,49.222,109.942,109.941,109.942l0,0h0h0l0,0&#10;&#9;&#9;c60.719,0,109.941-49.223,109.941-109.942v-36.63C365.942,155.572,262.588,161.646,192.729,103.425z"/>
	<path style="fill:none;stroke:#000000;stroke-width:20;stroke-linecap:round;stroke-linejoin:round;stroke-miterlimit:10;" d="&#10;&#9;&#9;M286.532,219.562c-6.094,10.535-17.485,17.624-30.532,17.624s-24.437-7.088-30.532-17.624"/>
	<path style="fill:none;stroke:#000000;stroke-width:20;stroke-linecap:round;stroke-linejoin:round;stroke-miterlimit:10;" d="&#10;&#9;&#9;M196.85,347.369l-35.982,38.341l43.592,68.181c0,0,21.172-46.621,51.54-46.621C256,407.27,196.85,391.353,196.85,347.369z"/>
	<path style="fill:none;stroke:#000000;stroke-width:20;stroke-linecap:round;stroke-linejoin:round;stroke-miterlimit:10;" d="&#10;&#9;&#9;M315.15,347.369l35.982,38.341l-43.592,68.181c0,0-21.172-46.621-51.54-46.621C256,407.27,315.15,391.353,315.15,347.369z"/>
	<path style="fill:none;stroke:#000000;stroke-width:20;stroke-linecap:round;stroke-linejoin:round;stroke-miterlimit:10;" d="&#10;&#9;&#9;M390.869,156.572V95.845c0-14.095-5.824-27.564-16.095-37.219h0C373.39,37.186,354.694,10,280.133,10&#10;&#9;&#9;c-20.531,0-43.187,4.443-56.022,10.698c-10.785-2.711-22.508-2.063-33.533,2.621s-19.631,12.67-25.168,22.315h0&#10;&#9;&#9;c-26.736,10.65-44.279,36.522-44.279,65.301v45.638"/>
	
		<line style="fill:none;stroke:#000000;stroke-width:20;stroke-linecap:round;stroke-linejoin:round;stroke-miterlimit:10;" x1="256" y1="502" x2="256" y2="502"/>
</g>
<g>
</g>
<g>
</g>
<g>
</g>
<g>
</g>
<g>
</g>
<g>
</g>
<g>
</g>
<g>
</g>
<g>
</g>
<g>
</g>
<g>
</g>
<g>
</g>
<g>
</g>
<g>
</g>
<g>
</g>
</svg>